<svg id="visual" viewBox="0 0 960 540" width="960" height="540" xmlns="http://www.w3.org/2000/svg" xmlns:xlink="http://www.w3.org/1999/xlink" version="1.1"><rect x="0" y="0" width="960" height="540" fill="#ffffff"></rect><defs><linearGradient id="grad1_0" x1="43.8%" y1="0%" x2="100%" y2="100%"><stop offset="14.444444444444446%" stop-color="#1b9476" stop-opacity="1"></stop><stop offset="85.55555555555554%" stop-color="#1b9476" stop-opacity="1"></stop></linearGradient></defs><defs><linearGradient id="grad1_1" x1="43.8%" y1="0%" x2="100%" y2="100%"><stop offset="14.444444444444446%" stop-color="#1b9476" stop-opacity="1"></stop><stop offset="85.55555555555554%" stop-color="#63af96" stop-opacity="1"></stop></linearGradient></defs><defs><linearGradient id="grad1_2" x1="43.8%" y1="0%" x2="100%" y2="100%"><stop offset="14.444444444444446%" stop-color="#99c9b8" stop-opacity="1"></stop><stop offset="85.55555555555554%" stop-color="#63af96" stop-opacity="1"></stop></linearGradient></defs><defs><linearGradient id="grad1_3" x1="43.8%" y1="0%" x2="100%" y2="100%"><stop offset="14.444444444444446%" stop-color="#99c9b8" stop-opacity="1"></stop><stop offset="85.55555555555554%" stop-color="#cce4db" stop-opacity="1"></stop></linearGradient></defs><defs><linearGradient id="grad1_4" x1="43.8%" y1="0%" x2="100%" y2="100%"><stop offset="14.444444444444446%" stop-color="#ffffff" stop-opacity="1"></stop><stop offset="85.55555555555554%" stop-color="#cce4db" stop-opacity="1"></stop></linearGradient></defs><defs><linearGradient id="grad2_0" x1="0%" y1="0%" x2="56.3%" y2="100%"><stop offset="14.444444444444446%" stop-color="#1b9476" stop-opacity="1"></stop><stop offset="85.55555555555554%" stop-color="#1b9476" stop-opacity="1"></stop></linearGradient></defs><defs><linearGradient id="grad2_1" x1="0%" y1="0%" x2="56.3%" y2="100%"><stop offset="14.444444444444446%" stop-color="#63af96" stop-opacity="1"></stop><stop offset="85.55555555555554%" stop-color="#1b9476" stop-opacity="1"></stop></linearGradient></defs><defs><linearGradient id="grad2_2" x1="0%" y1="0%" x2="56.3%" y2="100%"><stop offset="14.444444444444446%" stop-color="#63af96" stop-opacity="1"></stop><stop offset="85.55555555555554%" stop-color="#99c9b8" stop-opacity="1"></stop></linearGradient></defs><defs><linearGradient id="grad2_3" x1="0%" y1="0%" x2="56.3%" y2="100%"><stop offset="14.444444444444446%" stop-color="#cce4db" stop-opacity="1"></stop><stop offset="85.55555555555554%" stop-color="#99c9b8" stop-opacity="1"></stop></linearGradient></defs><defs><linearGradient id="grad2_4" x1="0%" y1="0%" x2="56.3%" y2="100%"><stop offset="14.444444444444446%" stop-color="#cce4db" stop-opacity="1"></stop><stop offset="85.55555555555554%" stop-color="#ffffff" stop-opacity="1"></stop></linearGradient></defs><g transform="translate(960, 0)"><path d="M0 351C-69.4 346.5 -138.8 341.9 -175.5 304C-212.2 266 -216.1 194.7 -239.9 138.5C-263.7 82.3 -307.3 41.1 -351 0L0 0Z" fill="#e5f2ed"></path><path d="M0 280.8C-55.5 277.2 -111.1 273.5 -140.4 243.2C-169.7 212.8 -172.9 155.8 -191.9 110.8C-210.9 65.8 -245.9 32.9 -280.8 0L0 0Z" fill="#b2d7c9"></path><path d="M0 210.6C-41.6 207.9 -83.3 205.1 -105.3 182.4C-127.3 159.6 -129.7 116.8 -143.9 83.1C-158.2 49.4 -184.4 24.7 -210.6 0L0 0Z" fill="#7ebca7"></path><path d="M0 140.4C-27.8 138.6 -55.5 136.8 -70.2 121.6C-84.9 106.4 -86.4 77.9 -96 55.4C-105.5 32.9 -122.9 16.5 -140.4 0L0 0Z" fill="#45a186"></path><path d="M0 70.2C-13.9 69.3 -27.8 68.4 -35.1 60.8C-42.4 53.2 -43.2 38.9 -48 27.7C-52.7 16.5 -61.5 8.2 -70.2 0L0 0Z" fill="#1b9476"></path></g><g transform="translate(0, 540)"><path d="M0 -351C62.6 -342.5 125.2 -334 175.5 -304C225.8 -273.9 263.8 -222.3 291 -168C318.2 -113.7 334.6 -56.9 351 0L0 0Z" fill="#e5f2ed"></path><path d="M0 -280.8C50.1 -274 100.2 -267.2 140.4 -243.2C180.6 -219.1 211 -177.8 232.8 -134.4C254.5 -91 267.7 -45.5 280.8 0L0 0Z" fill="#b2d7c9"></path><path d="M0 -210.6C37.6 -205.5 75.1 -200.4 105.3 -182.4C135.5 -164.3 158.3 -133.4 174.6 -100.8C190.9 -68.2 200.8 -34.1 210.6 0L0 0Z" fill="#7ebca7"></path><path d="M0 -140.4C25 -137 50.1 -133.6 70.2 -121.6C90.3 -109.6 105.5 -88.9 116.4 -67.2C127.3 -45.5 133.8 -22.7 140.4 0L0 0Z" fill="#45a186"></path><path d="M0 -70.2C12.5 -68.5 25 -66.8 35.1 -60.8C45.2 -54.8 52.8 -44.5 58.2 -33.6C63.6 -22.7 66.9 -11.4 70.2 0L0 0Z" fill="#1b9476"></path></g></svg>