<svg id="visual" viewBox="0 0 900 600" width="900" height="600" xmlns="http://www.w3.org/2000/svg" xmlns:xlink="http://www.w3.org/1999/xlink" version="1.1"><rect x="0" y="0" width="900" height="600" fill="#d1ffde"></rect><defs><linearGradient id="grad1_0" x1="33.3%" y1="0%" x2="100%" y2="100%"><stop offset="20%" stop-color="#45e326" stop-opacity="1"></stop><stop offset="80%" stop-color="#45e326" stop-opacity="1"></stop></linearGradient></defs><defs><linearGradient id="grad1_1" x1="33.3%" y1="0%" x2="100%" y2="100%"><stop offset="20%" stop-color="#45e326" stop-opacity="1"></stop><stop offset="80%" stop-color="#68ec66" stop-opacity="1"></stop></linearGradient></defs><defs><linearGradient id="grad1_2" x1="33.3%" y1="0%" x2="100%" y2="100%"><stop offset="20%" stop-color="#89f493" stop-opacity="1"></stop><stop offset="80%" stop-color="#68ec66" stop-opacity="1"></stop></linearGradient></defs><defs><linearGradient id="grad1_3" x1="33.3%" y1="0%" x2="100%" y2="100%"><stop offset="20%" stop-color="#89f493" stop-opacity="1"></stop><stop offset="80%" stop-color="#acfabb" stop-opacity="1"></stop></linearGradient></defs><defs><linearGradient id="grad1_4" x1="33.3%" y1="0%" x2="100%" y2="100%"><stop offset="20%" stop-color="#d1ffde" stop-opacity="1"></stop><stop offset="80%" stop-color="#acfabb" stop-opacity="1"></stop></linearGradient></defs><defs><linearGradient id="grad2_0" x1="0%" y1="0%" x2="66.7%" y2="100%"><stop offset="20%" stop-color="#45e326" stop-opacity="1"></stop><stop offset="80%" stop-color="#45e326" stop-opacity="1"></stop></linearGradient></defs><defs><linearGradient id="grad2_1" x1="0%" y1="0%" x2="66.7%" y2="100%"><stop offset="20%" stop-color="#68ec66" stop-opacity="1"></stop><stop offset="80%" stop-color="#45e326" stop-opacity="1"></stop></linearGradient></defs><defs><linearGradient id="grad2_2" x1="0%" y1="0%" x2="66.7%" y2="100%"><stop offset="20%" stop-color="#68ec66" stop-opacity="1"></stop><stop offset="80%" stop-color="#89f493" stop-opacity="1"></stop></linearGradient></defs><defs><linearGradient id="grad2_3" x1="0%" y1="0%" x2="66.7%" y2="100%"><stop offset="20%" stop-color="#acfabb" stop-opacity="1"></stop><stop offset="80%" stop-color="#89f493" stop-opacity="1"></stop></linearGradient></defs><defs><linearGradient id="grad2_4" x1="0%" y1="0%" x2="66.7%" y2="100%"><stop offset="20%" stop-color="#acfabb" stop-opacity="1"></stop><stop offset="80%" stop-color="#d1ffde" stop-opacity="1"></stop></linearGradient></defs><g transform="translate(900, 0)"><path d="M0 378.6C-67.5 369.4 -134.9 360.2 -189.3 327.9C-243.7 295.5 -285 240 -314.4 181.5C-343.7 123 -361.2 61.5 -378.6 0L0 0Z" fill="#befdcd"></path><path d="M0 302.9C-54 295.5 -107.9 288.2 -151.4 262.3C-194.9 236.4 -228 192 -251.5 145.2C-275 98.4 -288.9 49.2 -302.9 0L0 0Z" fill="#9af7a8"></path><path d="M0 227.1C-40.5 221.6 -80.9 216.1 -113.6 196.7C-146.2 177.3 -171 144 -188.6 108.9C-206.2 73.8 -216.7 36.9 -227.1 0L0 0Z" fill="#78f07e"></path><path d="M0 151.4C-27 147.8 -54 144.1 -75.7 131.1C-97.5 118.2 -114 96 -125.7 72.6C-137.5 49.2 -144.5 24.6 -151.4 0L0 0Z" fill="#57e84b"></path><path d="M0 75.7C-13.5 73.9 -27 72 -37.9 65.6C-48.7 59.1 -57 48 -62.9 36.3C-68.7 24.6 -72.2 12.3 -75.7 0L0 0Z" fill="#45e326"></path></g><g transform="translate(0, 600)"><path d="M0 -378.6C56.4 -352.4 112.9 -326.2 172 -297.9C231.1 -269.6 293 -239.3 327.9 -189.3C362.7 -139.3 370.7 -69.6 378.6 0L0 0Z" fill="#befdcd"></path><path d="M0 -302.9C45.1 -281.9 90.3 -260.9 137.6 -238.3C184.9 -215.7 234.4 -191.4 262.3 -151.4C290.2 -111.4 296.5 -55.7 302.9 0L0 0Z" fill="#9af7a8"></path><path d="M0 -227.1C33.9 -211.4 67.7 -195.7 103.2 -178.7C138.7 -161.8 175.8 -143.6 196.7 -113.6C217.6 -83.6 222.4 -41.8 227.1 0L0 0Z" fill="#78f07e"></path><path d="M0 -151.4C22.6 -141 45.1 -130.5 68.8 -119.2C92.5 -107.9 117.2 -95.7 131.1 -75.7C145.1 -55.7 148.3 -27.9 151.4 0L0 0Z" fill="#57e84b"></path><path d="M0 -75.7C11.3 -70.5 22.6 -65.2 34.4 -59.6C46.2 -53.9 58.6 -47.9 65.6 -37.9C72.5 -27.9 74.1 -13.9 75.7 0L0 0Z" fill="#45e326"></path></g></svg>