<svg id="visual" viewBox="0 0 960 300" width="960" height="300" xmlns="http://www.w3.org/2000/svg" xmlns:xlink="http://www.w3.org/1999/xlink" version="1.1"><rect x="0" y="0" width="960" height="300" fill="#ffffff"></rect><path d="M0 93L22.8 94.3C45.7 95.7 91.3 98.3 137 105.7C182.7 113 228.3 125 274 141.5C319.7 158 365.3 179 411.2 177.7C457 176.3 503 152.7 548.8 142.7C594.7 132.7 640.3 136.3 686 145.5C731.7 154.7 777.3 169.3 823 163.3C868.7 157.3 914.3 130.7 937.2 117.3L960 104L960 301L937.2 301C914.3 301 868.7 301 823 301C777.3 301 731.7 301 686 301C640.3 301 594.7 301 548.8 301C503 301 457 301 411.2 301C365.3 301 319.7 301 274 301C228.3 301 182.7 301 137 301C91.3 301 45.7 301 22.8 301L0 301Z" fill="#a5d9b2"></path><path d="M0 149L22.8 147C45.7 145 91.3 141 137 152.3C182.7 163.7 228.3 190.3 274 200.3C319.7 210.3 365.3 203.7 411.2 197.8C457 192 503 187 548.8 186.8C594.7 186.7 640.3 191.3 686 182.7C731.7 174 777.3 152 823 141.8C868.7 131.7 914.3 133.3 937.2 134.2L960 135L960 301L937.2 301C914.3 301 868.7 301 823 301C777.3 301 731.7 301 686 301C640.3 301 594.7 301 548.8 301C503 301 457 301 411.2 301C365.3 301 319.7 301 274 301C228.3 301 182.7 301 137 301C91.3 301 45.7 301 22.8 301L0 301Z" fill="#89c7a1"></path><path d="M0 230L22.8 217.5C45.7 205 91.3 180 137 176.8C182.7 173.7 228.3 192.3 274 197C319.7 201.7 365.3 192.3 411.2 194.2C457 196 503 209 548.8 208.3C594.7 207.7 640.3 193.3 686 188.2C731.7 183 777.3 187 823 190.2C868.7 193.3 914.3 195.7 937.2 196.8L960 198L960 301L937.2 301C914.3 301 868.7 301 823 301C777.3 301 731.7 301 686 301C640.3 301 594.7 301 548.8 301C503 301 457 301 411.2 301C365.3 301 319.7 301 274 301C228.3 301 182.7 301 137 301C91.3 301 45.7 301 22.8 301L0 301Z" fill="#6bb691"></path><path d="M0 229L22.8 230.5C45.7 232 91.3 235 137 230.2C182.7 225.3 228.3 212.7 274 206.5C319.7 200.3 365.3 200.7 411.2 200.8C457 201 503 201 548.8 210.3C594.7 219.7 640.3 238.3 686 241.7C731.7 245 777.3 233 823 228.8C868.7 224.7 914.3 228.3 937.2 230.2L960 232L960 301L937.2 301C914.3 301 868.7 301 823 301C777.3 301 731.7 301 686 301C640.3 301 594.7 301 548.8 301C503 301 457 301 411.2 301C365.3 301 319.7 301 274 301C228.3 301 182.7 301 137 301C91.3 301 45.7 301 22.8 301L0 301Z" fill="#4aa583"></path><path d="M0 239L22.8 240C45.7 241 91.3 243 137 247.5C182.7 252 228.3 259 274 258.7C319.7 258.3 365.3 250.7 411.2 250.7C457 250.7 503 258.3 548.8 256C594.7 253.7 640.3 241.3 686 238.3C731.7 235.3 777.3 241.7 823 246.3C868.7 251 914.3 254 937.2 255.5L960 257L960 301L937.2 301C914.3 301 868.7 301 823 301C777.3 301 731.7 301 686 301C640.3 301 594.7 301 548.8 301C503 301 457 301 411.2 301C365.3 301 319.7 301 274 301C228.3 301 182.7 301 137 301C91.3 301 45.7 301 22.8 301L0 301Z" fill="#1b9476"></path></svg>