<svg id="visual" viewBox="0 0 960 300" width="960" height="300" xmlns="http://www.w3.org/2000/svg" xmlns:xlink="http://www.w3.org/1999/xlink" version="1.1"><rect x="0" y="0" width="960" height="300" fill="#ffffff"></rect><path d="M0 59L120 59L120 58L240 58L240 210L360 210L360 134L480 134L480 90L600 90L600 109L720 109L720 135L840 135L840 92L960 92L960 186L960 0L960 0L840 0L840 0L720 0L720 0L600 0L600 0L480 0L480 0L360 0L360 0L240 0L240 0L120 0L120 0L0 0Z" fill="#2693ca"></path><path d="M0 126L120 126L120 138L240 138L240 55L360 55L360 156L480 156L480 71L600 71L600 111L720 111L720 80L840 80L840 177L960 177L960 168L960 0L960 0L840 0L840 0L720 0L720 0L600 0L600 0L480 0L480 0L360 0L360 0L240 0L240 0L120 0L120 0L0 0Z" fill="#248bbf"></path><path d="M0 94L120 94L120 110L240 110L240 52L360 52L360 65L480 65L480 103L600 103L600 131L720 131L720 96L840 96L840 122L960 122L960 61L960 0L960 0L840 0L840 0L720 0L720 0L600 0L600 0L480 0L480 0L360 0L360 0L240 0L240 0L120 0L120 0L0 0Z" fill="#2183b4"></path><path d="M0 136L120 136L120 62L240 62L240 77L360 77L360 144L480 144L480 72L600 72L600 81L720 81L720 51L840 51L840 118L960 118L960 111L960 0L960 0L840 0L840 0L720 0L720 0L600 0L600 0L480 0L480 0L360 0L360 0L240 0L240 0L120 0L120 0L0 0Z" fill="#1f7ba9"></path><path d="M0 132L120 132L120 89L240 89L240 108L360 108L360 101L480 101L480 47L600 47L600 44L720 44L720 82L840 82L840 134L960 134L960 117L960 0L960 0L840 0L840 0L720 0L720 0L600 0L600 0L480 0L480 0L360 0L360 0L240 0L240 0L120 0L120 0L0 0Z" fill="#1d739e"></path><path d="M0 108L120 108L120 62L240 62L240 98L360 98L360 80L480 80L480 78L600 78L600 67L720 67L720 91L840 91L840 93L960 93L960 66L960 0L960 0L840 0L840 0L720 0L720 0L600 0L600 0L480 0L480 0L360 0L360 0L240 0L240 0L120 0L120 0L0 0Z" fill="#1b6b93"></path><path d="M0 81L120 81L120 64L240 64L240 83L360 83L360 83L480 83L480 106L600 106L600 81L720 81L720 53L840 53L840 29L960 29L960 35L960 0L960 0L840 0L840 0L720 0L720 0L600 0L600 0L480 0L480 0L360 0L360 0L240 0L240 0L120 0L120 0L0 0Z" fill="#196388"></path><path d="M0 84L120 84L120 62L240 62L240 69L360 69L360 77L480 77L480 85L600 85L600 68L720 68L720 88L840 88L840 81L960 81L960 81L960 0L960 0L840 0L840 0L720 0L720 0L600 0L600 0L480 0L480 0L360 0L360 0L240 0L240 0L120 0L120 0L0 0Z" fill="#175c7e"></path><path d="M0 32L120 32L120 63L240 63L240 65L360 65L360 20L480 20L480 53L600 53L600 59L720 59L720 40L840 40L840 61L960 61L960 18L960 0L960 0L840 0L840 0L720 0L720 0L600 0L600 0L480 0L480 0L360 0L360 0L240 0L240 0L120 0L120 0L0 0Z" fill="#155474"></path><path d="M0 27L120 27L120 28L240 28L240 17L360 17L360 26L480 26L480 49L600 49L600 29L720 29L720 45L840 45L840 24L960 24L960 26L960 0L960 0L840 0L840 0L720 0L720 0L600 0L600 0L480 0L480 0L360 0L360 0L240 0L240 0L120 0L120 0L0 0Z" fill="#144d6a"></path><path d="M0 28L120 28L120 13L240 13L240 30L360 30L360 30L480 30L480 30L600 30L600 13L720 13L720 19L840 19L840 32L960 32L960 8L960 0L960 0L840 0L840 0L720 0L720 0L600 0L600 0L480 0L480 0L360 0L360 0L240 0L240 0L120 0L120 0L0 0Z" fill="#124660"></path></svg>