<svg id="visual" viewBox="0 0 960 300" width="960" height="300" xmlns="http://www.w3.org/2000/svg" xmlns:xlink="http://www.w3.org/1999/xlink" version="1.1"><rect x="0" y="0" width="960" height="300" fill="#f4ebd6"></rect><path d="M0 136L120 117L240 141L360 138L480 135L600 103L720 128L840 103L960 142L960 301L840 301L720 301L600 301L480 301L360 301L240 301L120 301L0 301Z" fill="#95a4bc"></path><path d="M0 140L120 163L240 146L360 173L480 174L600 153L720 119L840 165L960 171L960 301L840 301L720 301L600 301L480 301L360 301L240 301L120 301L0 301Z" fill="#7d90a9"></path><path d="M0 168L120 181L240 168L360 151L480 170L600 201L720 178L840 166L960 174L960 301L840 301L720 301L600 301L480 301L360 301L240 301L120 301L0 301Z" fill="#647d96"></path><path d="M0 194L120 193L240 199L360 228L480 218L600 194L720 219L840 227L960 180L960 301L840 301L720 301L600 301L480 301L360 301L240 301L120 301L0 301Z" fill="#4c6a84"></path><path d="M0 264L120 225L240 225L360 216L480 234L600 246L720 264L840 260L960 234L960 301L840 301L720 301L600 301L480 301L360 301L240 301L120 301L0 301Z" fill="#325872"></path><path d="M0 291L120 271L240 293L360 277L480 282L600 291L720 265L840 289L960 292L960 301L840 301L720 301L600 301L480 301L360 301L240 301L120 301L0 301Z" fill="#124660"></path></svg>