<svg id="visual" viewBox="0 0 960 300" width="960" height="300" xmlns="http://www.w3.org/2000/svg" xmlns:xlink="http://www.w3.org/1999/xlink" version="1.1"><rect x="0" y="0" width="960" height="300" fill="#ff0a0a"></rect><path d="M0 104L20 122.5C40 141 80 178 120 194.5C160 211 200 207 240 189.2C280 171.3 320 139.7 360 108.5C400 77.3 440 46.7 480 67.2C520 87.7 560 159.3 600 181C640 202.7 680 174.3 720 170.2C760 166 800 186 840 200.3C880 214.7 920 223.3 940 227.7L960 232L960 301L940 301C920 301 880 301 840 301C800 301 760 301 720 301C680 301 640 301 600 301C560 301 520 301 480 301C440 301 400 301 360 301C320 301 280 301 240 301C200 301 160 301 120 301C80 301 40 301 20 301L0 301Z" fill="#ff0000"></path><path d="M0 190L20 195.2C40 200.3 80 210.7 120 195.3C160 180 200 139 240 112.2C280 85.3 320 72.7 360 79.5C400 86.3 440 112.7 480 124.8C520 137 560 135 600 147.8C640 160.7 680 188.3 720 191.5C760 194.7 800 173.3 840 148.5C880 123.7 920 95.3 940 81.2L960 67L960 301L940 301C920 301 880 301 840 301C800 301 760 301 720 301C680 301 640 301 600 301C560 301 520 301 480 301C440 301 400 301 360 301C320 301 280 301 240 301C200 301 160 301 120 301C80 301 40 301 20 301L0 301Z" fill="#d35700"></path><path d="M0 259L20 249C40 239 80 219 120 194.7C160 170.3 200 141.7 240 147.7C280 153.7 320 194.3 360 192.2C400 190 440 145 480 129.2C520 113.3 560 126.7 600 132.7C640 138.7 680 137.3 720 130.2C760 123 800 110 840 119C880 128 920 159 940 174.5L960 190L960 301L940 301C920 301 880 301 840 301C800 301 760 301 720 301C680 301 640 301 600 301C560 301 520 301 480 301C440 301 400 301 360 301C320 301 280 301 240 301C200 301 160 301 120 301C80 301 40 301 20 301L0 301Z" fill="#aa6f00"></path><path d="M0 223L20 215.3C40 207.7 80 192.3 120 194C160 195.7 200 214.3 240 227.7C280 241 320 249 360 247.5C400 246 440 235 480 234.3C520 233.7 560 243.3 600 231.7C640 220 680 187 720 178.3C760 169.7 800 185.3 840 193.7C880 202 920 203 940 203.5L960 204L960 301L940 301C920 301 880 301 840 301C800 301 760 301 720 301C680 301 640 301 600 301C560 301 520 301 480 301C440 301 400 301 360 301C320 301 280 301 240 301C200 301 160 301 120 301C80 301 40 301 20 301L0 301Z" fill="#897a00"></path><path d="M0 197L20 209.2C40 221.3 80 245.7 120 247.2C160 248.7 200 227.3 240 213.7C280 200 320 194 360 193.5C400 193 440 198 480 198C520 198 560 193 600 203.2C640 213.3 680 238.7 720 245C760 251.3 800 238.7 840 240.3C880 242 920 258 940 266L960 274L960 301L940 301C920 301 880 301 840 301C800 301 760 301 720 301C680 301 640 301 600 301C560 301 520 301 480 301C440 301 400 301 360 301C320 301 280 301 240 301C200 301 160 301 120 301C80 301 40 301 20 301L0 301Z" fill="#5f8200"></path><path d="M0 242L20 238.3C40 234.7 80 227.3 120 232C160 236.7 200 253.3 240 255.2C280 257 320 244 360 239C400 234 440 237 480 235.3C520 233.7 560 227.3 600 233.5C640 239.7 680 258.3 720 258.8C760 259.3 800 241.7 840 235.8C880 230 920 236 940 239L960 242L960 301L940 301C920 301 880 301 840 301C800 301 760 301 720 301C680 301 640 301 600 301C560 301 520 301 480 301C440 301 400 301 360 301C320 301 280 301 240 301C200 301 160 301 120 301C80 301 40 301 20 301L0 301Z" fill="#008800"></path></svg>