<svg id="visual" viewBox="0 0 960 300" width="960" height="300" xmlns="http://www.w3.org/2000/svg" xmlns:xlink="http://www.w3.org/1999/xlink" version="1.1"><rect x="0" y="0" width="960" height="300" fill="#ff0000"></rect><path d="M0 113L16 138C32 163 64 213 96 230.3C128 247.7 160 232.3 192 208.3C224 184.3 256 151.7 288 156.2C320 160.7 352 202.3 384 227.8C416 253.3 448 262.7 480 248.8C512 235 544 198 576 177.5C608 157 640 153 672 158C704 163 736 177 768 189.5C800 202 832 213 864 207.5C896 202 928 180 944 169L960 158L960 0L944 0C928 0 896 0 864 0C832 0 800 0 768 0C736 0 704 0 672 0C640 0 608 0 576 0C544 0 512 0 480 0C448 0 416 0 384 0C352 0 320 0 288 0C256 0 224 0 192 0C160 0 128 0 96 0C64 0 32 0 16 0L0 0Z" fill="#ff2626"></path><path d="M0 132L16 134.2C32 136.3 64 140.7 96 136.8C128 133 160 121 192 135.7C224 150.3 256 191.7 288 189.3C320 187 352 141 384 120.5C416 100 448 105 480 122.7C512 140.3 544 170.7 576 189.3C608 208 640 215 672 208.7C704 202.3 736 182.7 768 186.7C800 190.7 832 218.3 864 204.7C896 191 928 136 944 108.5L960 81L960 0L944 0C928 0 896 0 864 0C832 0 800 0 768 0C736 0 704 0 672 0C640 0 608 0 576 0C544 0 512 0 480 0C448 0 416 0 384 0C352 0 320 0 288 0C256 0 224 0 192 0C160 0 128 0 96 0C64 0 32 0 16 0L0 0Z" fill="#ff0045"></path><path d="M0 112L16 109.5C32 107 64 102 96 108.2C128 114.3 160 131.7 192 131.2C224 130.7 256 112.3 288 109C320 105.7 352 117.3 384 135C416 152.7 448 176.3 480 176.7C512 177 544 154 576 143C608 132 640 133 672 133.8C704 134.7 736 135.3 768 149C800 162.7 832 189.3 864 190.2C896 191 928 166 944 153.5L960 141L960 0L944 0C928 0 896 0 864 0C832 0 800 0 768 0C736 0 704 0 672 0C640 0 608 0 576 0C544 0 512 0 480 0C448 0 416 0 384 0C352 0 320 0 288 0C256 0 224 0 192 0C160 0 128 0 96 0C64 0 32 0 16 0L0 0Z" fill="#ff0060"></path><path d="M0 64L16 67.7C32 71.3 64 78.7 96 88C128 97.3 160 108.7 192 107.2C224 105.7 256 91.3 288 91.5C320 91.7 352 106.3 384 109.2C416 112 448 103 480 106.3C512 109.7 544 125.3 576 130.5C608 135.7 640 130.3 672 122C704 113.7 736 102.3 768 97.3C800 92.3 832 93.7 864 88.8C896 84 928 73 944 67.5L960 62L960 0L944 0C928 0 896 0 864 0C832 0 800 0 768 0C736 0 704 0 672 0C640 0 608 0 576 0C544 0 512 0 480 0C448 0 416 0 384 0C352 0 320 0 288 0C256 0 224 0 192 0C160 0 128 0 96 0C64 0 32 0 16 0L0 0Z" fill="#fb007b"></path><path d="M0 42L16 59.3C32 76.7 64 111.3 96 128.3C128 145.3 160 144.7 192 145C224 145.3 256 146.7 288 148C320 149.3 352 150.7 384 137.3C416 124 448 96 480 81.7C512 67.3 544 66.7 576 62.5C608 58.3 640 50.7 672 46.7C704 42.7 736 42.3 768 45C800 47.7 832 53.3 864 67.2C896 81 928 103 944 114L960 125L960 0L944 0C928 0 896 0 864 0C832 0 800 0 768 0C736 0 704 0 672 0C640 0 608 0 576 0C544 0 512 0 480 0C448 0 416 0 384 0C352 0 320 0 288 0C256 0 224 0 192 0C160 0 128 0 96 0C64 0 32 0 16 0L0 0Z" fill="#f00093"></path><path d="M0 97L16 92.2C32 87.3 64 77.7 96 82.3C128 87 160 106 192 106C224 106 256 87 288 71.8C320 56.7 352 45.3 384 41.8C416 38.3 448 42.7 480 44.5C512 46.3 544 45.7 576 46C608 46.3 640 47.7 672 61C704 74.3 736 99.7 768 104C800 108.3 832 91.7 864 92.5C896 93.3 928 111.7 944 120.8L960 130L960 0L944 0C928 0 896 0 864 0C832 0 800 0 768 0C736 0 704 0 672 0C640 0 608 0 576 0C544 0 512 0 480 0C448 0 416 0 384 0C352 0 320 0 288 0C256 0 224 0 192 0C160 0 128 0 96 0C64 0 32 0 16 0L0 0Z" fill="#d700b2"></path><path d="M0 71L16 62C32 53 64 35 96 27.2C128 19.3 160 21.7 192 21.7C224 21.7 256 19.3 288 19.7C320 20 352 23 384 24C416 25 448 24 480 31.2C512 38.3 544 53.7 576 66C608 78.3 640 87.7 672 91.8C704 96 736 95 768 88.7C800 82.3 832 70.7 864 69.3C896 68 928 77 944 81.5L960 86L960 0L944 0C928 0 896 0 864 0C832 0 800 0 768 0C736 0 704 0 672 0C640 0 608 0 576 0C544 0 512 0 480 0C448 0 416 0 384 0C352 0 320 0 288 0C256 0 224 0 192 0C160 0 128 0 96 0C64 0 32 0 16 0L0 0Z" fill="#a500d7"></path><path d="M0 34L16 37.3C32 40.7 64 47.3 96 51.7C128 56 160 58 192 52.3C224 46.7 256 33.3 288 27C320 20.7 352 21.3 384 28.2C416 35 448 48 480 55.2C512 62.3 544 63.7 576 59.5C608 55.3 640 45.7 672 36.3C704 27 736 18 768 19.2C800 20.3 832 31.7 864 36.3C896 41 928 39 944 38L960 37L960 0L944 0C928 0 896 0 864 0C832 0 800 0 768 0C736 0 704 0 672 0C640 0 608 0 576 0C544 0 512 0 480 0C448 0 416 0 384 0C352 0 320 0 288 0C256 0 224 0 192 0C160 0 128 0 96 0C64 0 32 0 16 0L0 0Z" fill="#0000ff"></path></svg>