<svg id="visual" viewBox="0 0 960 300" width="960" height="300" xmlns="http://www.w3.org/2000/svg" xmlns:xlink="http://www.w3.org/1999/xlink" version="1.1"><rect x="0" y="0" width="960" height="300" fill="#ffffff"></rect><path d="M0 119L22.8 141.3C45.7 163.7 91.3 208.3 137 219.2C182.7 230 228.3 207 274 180.7C319.7 154.3 365.3 124.7 411.2 109.5C457 94.3 503 93.7 548.8 122.5C594.7 151.3 640.3 209.7 686 205.3C731.7 201 777.3 134 823 114.8C868.7 95.7 914.3 124.3 937.2 138.7L960 153L960 0L937.2 0C914.3 0 868.7 0 823 0C777.3 0 731.7 0 686 0C640.3 0 594.7 0 548.8 0C503 0 457 0 411.2 0C365.3 0 319.7 0 274 0C228.3 0 182.7 0 137 0C91.3 0 45.7 0 22.8 0L0 0Z" fill="#9700f2" stroke-linecap="round" stroke-linejoin="miter"></path></svg>