<svg id="visual" viewBox="0 0 960 100" width="960" height="100" xmlns="http://www.w3.org/2000/svg" xmlns:xlink="http://www.w3.org/1999/xlink" version="1.1"><rect x="0" y="0" width="960" height="100" fill="#ffffff"></rect><path d="M0 38L22.8 36.2C45.7 34.3 91.3 30.7 137 29C182.7 27.3 228.3 27.7 274 28C319.7 28.3 365.3 28.7 411.2 31.7C457 34.7 503 40.3 548.8 42.3C594.7 44.3 640.3 42.7 686 41.5C731.7 40.3 777.3 39.7 823 37.5C868.7 35.3 914.3 31.7 937.2 29.8L960 28L960 0L937.2 0C914.3 0 868.7 0 823 0C777.3 0 731.7 0 686 0C640.3 0 594.7 0 548.8 0C503 0 457 0 411.2 0C365.3 0 319.7 0 274 0C228.3 0 182.7 0 137 0C91.3 0 45.7 0 22.8 0L0 0Z" fill="#c9e6cc"></path><path d="M0 19L22.8 21.8C45.7 24.7 91.3 30.3 137 35.8C182.7 41.3 228.3 46.7 274 49C319.7 51.3 365.3 50.7 411.2 47.8C457 45 503 40 548.8 34.7C594.7 29.3 640.3 23.7 686 23.8C731.7 24 777.3 30 823 29.5C868.7 29 914.3 22 937.2 18.5L960 15L960 0L937.2 0C914.3 0 868.7 0 823 0C777.3 0 731.7 0 686 0C640.3 0 594.7 0 548.8 0C503 0 457 0 411.2 0C365.3 0 319.7 0 274 0C228.3 0 182.7 0 137 0C91.3 0 45.7 0 22.8 0L0 0Z" fill="#b5e1bc"></path><path d="M0 31L22.8 29.7C45.7 28.3 91.3 25.7 137 23.8C182.7 22 228.3 21 274 20.3C319.7 19.7 365.3 19.3 411.2 19.3C457 19.3 503 19.7 548.8 18.5C594.7 17.3 640.3 14.7 686 14.2C731.7 13.7 777.3 15.3 823 16.8C868.7 18.3 914.3 19.7 937.2 20.3L960 21L960 0L937.2 0C914.3 0 868.7 0 823 0C777.3 0 731.7 0 686 0C640.3 0 594.7 0 548.8 0C503 0 457 0 411.2 0C365.3 0 319.7 0 274 0C228.3 0 182.7 0 137 0C91.3 0 45.7 0 22.8 0L0 0Z" fill="#a1dbad"></path><path d="M0 24L22.8 21.3C45.7 18.7 91.3 13.3 137 11C182.7 8.7 228.3 9.3 274 11.8C319.7 14.3 365.3 18.7 411.2 20.7C457 22.7 503 22.3 548.8 22.5C594.7 22.7 640.3 23.3 686 23C731.7 22.7 777.3 21.3 823 18C868.7 14.7 914.3 9.3 937.2 6.7L960 4L960 0L937.2 0C914.3 0 868.7 0 823 0C777.3 0 731.7 0 686 0C640.3 0 594.7 0 548.8 0C503 0 457 0 411.2 0C365.3 0 319.7 0 274 0C228.3 0 182.7 0 137 0C91.3 0 45.7 0 22.8 0L0 0Z" fill="#8bd59e"></path></svg>