<svg id="visual" viewBox="0 0 960 300" width="960" height="300" xmlns="http://www.w3.org/2000/svg" xmlns:xlink="http://www.w3.org/1999/xlink" version="1.1"><rect x="0" y="0" width="960" height="300" fill="#ffffff"></rect><path d="M0 242L120 242L120 210L240 210L240 151L360 151L360 232L480 232L480 148L600 148L600 159L720 159L720 144L840 144L840 247L960 247L960 137L960 0L960 0L840 0L840 0L720 0L720 0L600 0L600 0L480 0L480 0L360 0L360 0L240 0L240 0L120 0L120 0L0 0Z" fill="#44ce5b"></path><path d="M0 179L120 179L120 131L240 131L240 185L360 185L360 205L480 205L480 205L600 205L600 134L720 134L720 198L840 198L840 177L960 177L960 147L960 0L960 0L840 0L840 0L720 0L720 0L600 0L600 0L480 0L480 0L360 0L360 0L240 0L240 0L120 0L120 0L0 0Z" fill="#3ac24e"></path><path d="M0 82L120 82L120 129L240 129L240 144L360 144L360 158L480 158L480 108L600 108L600 98L720 98L720 174L840 174L840 101L960 101L960 178L960 0L960 0L840 0L840 0L720 0L720 0L600 0L600 0L480 0L480 0L360 0L360 0L240 0L240 0L120 0L120 0L0 0Z" fill="#30b740"></path><path d="M0 73L120 73L120 116L240 116L240 90L360 90L360 92L480 92L480 103L600 103L600 91L720 91L720 62L840 62L840 63L960 63L960 87L960 0L960 0L840 0L840 0L720 0L720 0L600 0L600 0L480 0L480 0L360 0L360 0L240 0L240 0L120 0L120 0L0 0Z" fill="#24ab32"></path><path d="M0 104L120 104L120 51L240 51L240 37L360 37L360 72L480 72L480 67L600 67L600 43L720 43L720 58L840 58L840 57L960 57L960 71L960 0L960 0L840 0L840 0L720 0L720 0L600 0L600 0L480 0L480 0L360 0L360 0L240 0L240 0L120 0L120 0L0 0Z" fill="#169f23"></path><path d="M0 23L120 23L120 56L240 56L240 67L360 67L360 26L480 26L480 60L600 60L600 62L720 62L720 47L840 47L840 19L960 19L960 9L960 0L960 0L840 0L840 0L720 0L720 0L600 0L600 0L480 0L480 0L360 0L360 0L240 0L240 0L120 0L120 0L0 0Z" fill="#009411"></path></svg>