<svg id="visual" viewBox="0 0 960 300" width="960" height="300" xmlns="http://www.w3.org/2000/svg" xmlns:xlink="http://www.w3.org/1999/xlink" version="1.1"><rect x="0" y="0" width="960" height="300" fill="#F4EBD6"></rect><path d="M0 66L32 61.7C64 57.3 128 48.7 192 52.8C256 57 320 74 384 95C448 116 512 141 576 148.3C640 155.7 704 145.3 768 124.3C832 103.3 896 71.7 928 55.8L960 40L960 0L928 0C896 0 832 0 768 0C704 0 640 0 576 0C512 0 448 0 384 0C320 0 256 0 192 0C128 0 64 0 32 0L0 0Z" fill="#1B9476" stroke-linecap="round" stroke-linejoin="miter"></path></svg>